<svg width="68" height="68" viewBox="0 0 68 68" fill="none" xmlns="http://www.w3.org/2000/svg">
<circle cx="34" cy="34" r="34" fill="black" fill-opacity="0.06"/>
<path d="M42.9688 49.025C41.1313 50.8063 39.125 50.525 37.1938 49.6813C35.15 48.8188 33.275 48.7813 31.1188 49.6813C28.4188 50.8438 26.9938 50.5063 25.3813 49.025C16.2313 39.5938 17.5813 25.2313 27.9688 24.7063C30.5 24.8375 32.2625 26.0938 33.7438 26.2063C35.9563 25.7563 38.075 24.4625 40.4375 24.6313C43.2688 24.8563 45.4063 25.9813 46.8125 28.0063C40.9625 31.5125 42.35 39.2188 47.7125 41.375C46.6438 44.1875 45.2563 46.9813 42.95 49.0438L42.9688 49.025ZM33.5563 24.5938C33.275 20.4125 36.6688 16.9625 40.5688 16.625C41.1125 21.4625 36.1813 25.0625 33.5563 24.5938Z" fill="black"/>
</svg>
