<svg width="34" height="34" viewBox="0 0 34 34" fill="none" xmlns="http://www.w3.org/2000/svg">
<circle cx="17" cy="17" r="16.5" fill="#F16023" stroke="#F16023"/>
<path fill-rule="evenodd" clip-rule="evenodd" d="M13.25 11.015V10C13.25 9.00544 13.6451 8.05161 14.3483 7.34835C15.0516 6.64509 16.0054 6.25 17 6.25C17.9945 6.25 18.9484 6.64509 19.6516 7.34835C20.3549 8.05161 20.75 9.00544 20.75 10V11.015C22.037 11.054 22.825 11.192 23.426 11.691C24.259 12.383 24.479 13.553 24.918 15.894L25.668 19.894C26.285 23.186 26.593 24.832 25.694 25.916C24.794 27 23.119 27 19.77 27H14.23C10.88 27 9.20599 27 8.30599 25.916C7.40599 24.832 7.71599 23.186 8.33199 19.894L9.08199 15.894C9.52199 13.554 9.74099 12.383 10.574 11.691C11.175 11.192 11.963 11.054 13.25 11.015ZM14.75 10C14.75 9.40326 14.987 8.83097 15.409 8.40901C15.831 7.98705 16.4033 7.75 17 7.75C17.5967 7.75 18.169 7.98705 18.591 8.40901C19.0129 8.83097 19.25 9.40326 19.25 10V11H14.75V10Z" fill="white"/>
</svg>
