<svg width="100" height="100" viewBox="0 0 100 100" fill="none" xmlns="http://www.w3.org/2000/svg">
<path d="M38.725 37.9666L44.2959 49.1103L33.0229 54.7479L10.4167 47.2124L16.0125 30.4208L38.725 37.9666ZM61.2771 38.0687L55.7042 49.2124L66.9771 54.8499L89.5834 47.3124L83.9875 30.5208L61.2771 38.0687ZM33.8021 57.5062L45.9792 54.8624L48.6521 67.1812L35.7584 87.2208L20.875 77.6437L33.8021 57.5062ZM41.2292 36.6666L50.0396 45.477L58.9521 36.5645V12.7354H41.2542L41.2292 36.6666ZM66.2792 57.5499L54.1021 54.9083L51.4292 67.2249L64.3229 87.2666L79.2063 77.6895L66.2792 57.5499Z" fill="#F16023" stroke="white" stroke-width="0.5" stroke-linecap="round" stroke-linejoin="round"/>
</svg>
