<svg width="34" height="34" viewBox="0 0 34 34" fill="none" xmlns="http://www.w3.org/2000/svg">
<circle cx="17" cy="17" r="16.5" fill="white" stroke="#F16023"/>
<path d="M14.5 21C12.6833 21 11.146 20.3707 9.888 19.112C8.63 17.8533 8.00067 16.316 8 14.5C7.99933 12.684 8.62867 11.1467 9.888 9.888C11.1473 8.62933 12.6847 8 14.5 8C16.3153 8 17.853 8.62933 19.113 9.888C20.373 11.1467 21.002 12.684 21 14.5C21 15.2333 20.8833 15.925 20.65 16.575C20.4167 17.225 20.1 17.8 19.7 18.3L25.3 23.9C25.4833 24.0833 25.575 24.3167 25.575 24.6C25.575 24.8833 25.4833 25.1167 25.3 25.3C25.1167 25.4833 24.8833 25.575 24.6 25.575C24.3167 25.575 24.0833 25.4833 23.9 25.3L18.3 19.7C17.8 20.1 17.225 20.4167 16.575 20.65C15.925 20.8833 15.2333 21 14.5 21ZM14.5 19C15.75 19 16.8127 18.5627 17.688 17.688C18.5633 16.8133 19.0007 15.7507 19 14.5C18.9993 13.2493 18.562 12.187 17.688 11.313C16.814 10.439 15.7513 10.0013 14.5 10C13.2487 9.99867 12.1863 10.4363 11.313 11.313C10.4397 12.1897 10.002 13.252 10 14.5C9.998 15.748 10.4357 16.8107 11.313 17.688C12.1903 18.5653 13.2527 19.0027 14.5 19Z" fill="#F16023"/>
</svg>
